<svg id="Слой_2" data-name="Слой 2" xmlns="http://www.w3.org/2000/svg" viewBox="0 0 78.61 78.61"><defs><style>.cls-1{fill:#cd6367;}.cls-2{fill:#fff;}</style></defs><title>1</title><rect class="cls-1" x="371.58" y="370.24" width="58.22" height="58.22" rx="4.47" ry="4.47" transform="translate(48.85 -526.33) rotate(46.06)"/><path class="cls-2" d="M391.88,413.75h15v-2.87s9.63,2,8.25-9.5l3-1.37a1.68,1.68,0,0,0,.52-.63,2.27,2.27,0,0,0-.52-2.37l-3.37-4.12s-.87-12-15-11.12-12,14.25-12,14.25-.5,3.88,4.38,10.5Z" transform="translate(-361.38 -360.04)"/><path class="cls-1" d="M399.83,389h3.5l.44,2,1.37,1.22,2.11-.68,1.79,2.38-1.29,1.63-.17,2.33,1.07,1.15-1.24,2.58-2.08-.32-1.33.42-.23,1.5-3.87,0-.48-1.37-1.5-.75-1.44.77-1.83-2.83,1.44-1.44-.25-2.33-1.16-1.51,1.63-2.25,1.95.59,1.25-1.08Z" transform="translate(-361.38 -360.04)"/><circle class="cls-2" cx="401.84" cy="396.65" r="3.06" transform="translate(-499.06 -129.92) rotate(-27.47)"/></svg>