<svg id="Слой_2" data-name="Слой 2" xmlns="http://www.w3.org/2000/svg" viewBox="0 0 78.61 78.61"><defs><style>.cls-1{fill:#cd6367;}.cls-2{fill:#fff;}</style></defs><title>облоко</title><rect class="cls-1" x="371.39" y="370.39" width="58.22" height="58.22" rx="4.47" ry="4.47" transform="translate(49.09 -526.29) rotate(46.06)"/><path class="cls-2" d="M390.25,386h19.38a2.8,2.8,0,0,1,1.5,2.75c-.25,1.88,0,15.25,0,15.25H388.88V388.54S388.75,386,390.25,386Z" transform="translate(-361.19 -360.19)"/><path class="cls-2" d="M388.87,405.67l22.13,0V412a2.67,2.67,0,0,1-2,2c-1.65.35-18.23.21-18.23.21a2.32,2.32,0,0,1-1.92-2.24C388.88,410.06,388.87,405.67,388.87,405.67Z" transform="translate(-361.19 -360.19)"/><path class="cls-1" d="M395,400h11.16a4.44,4.44,0,0,0,2.13-2.43,4.6,4.6,0,0,0,.06-2.61,2.5,2.5,0,0,0-.6-1.31,2.24,2.24,0,0,0-.86-.53A3.16,3.16,0,0,0,405,393s-.46-5.37-6.46-4a3.87,3.87,0,0,0-2.67,2.75s-2.58-.71-3.92,3S395,400,395,400Z" transform="translate(-361.19 -360.19)"/><circle class="cls-1" cx="31.93" cy="49.6" r="1.46"/></svg>