<svg id="Слой_2" data-name="Слой 2" xmlns="http://www.w3.org/2000/svg" viewBox="0 0 91.91 85.06"><defs><style>.cls-1,.cls-3{fill:#cd6367;}.cls-1{stroke:#fff;stroke-miterlimit:10;stroke-width:8px;}.cls-2{fill:#fff;}</style></defs><title>dogovor</title><polyline class="cls-1" points="37.98 4 72.38 4 87.91 21.06 87.91 69.94 37.98 69.94 37.98 4"/><polygon class="cls-2" points="46.95 14.09 65.2 14.09 65.2 26.97 78.08 26.97 78.08 61.09 46.95 61.09 46.95 14.09"/><rect class="cls-3" x="51.64" y="36.97" width="21.5" height="4.75"/><rect class="cls-3" x="51.64" y="44.47" width="21.5" height="4.75"/><polygon class="cls-2" points="70.14 15.09 70.14 22.22 77.27 22.22 70.14 15.09"/><polyline class="cls-1" points="4 15.13 38.4 15.13 53.93 32.19 53.93 81.06 4 81.06 4 15.13"/><polygon class="cls-2" points="12.98 25.22 31.23 25.22 31.23 38.09 44.1 38.09 44.1 72.22 12.98 72.22 12.98 25.22"/><rect class="cls-3" x="17.67" y="48.09" width="21.5" height="4.75"/><rect class="cls-3" x="17.67" y="55.59" width="21.5" height="4.75"/><polygon class="cls-2" points="36.16 26.22 36.16 33.34 43.29 33.34 36.16 26.22"/></svg>