<svg id="Слой_1" data-name="Слой 1" xmlns="http://www.w3.org/2000/svg" viewBox="0 0 15.5 13.83"><defs><style>.cls-1{fill:#cd6367;}.cls-2{fill:#fff;}</style></defs><title>setting</title><circle class="cls-1" cx="4.79" cy="4.76" r="3.62"/><path class="cls-2" d="M442.5,370.5" transform="translate(-391.58 -391.59)"/><path class="cls-1" d="M394.58,391.88l2.27-.29.43,1.36a2,2,0,0,1,.84.48l1.05-.66s.16,0,.2,0l1.33,1.68s.08.13,0,.2l-.95.85a2.41,2.41,0,0,1,.09.94l1.26.72a.2.2,0,0,1,.05.22c0,.15-.82,1.89-.82,1.89s-.11.09-.38,0l-1.08-.37a4.3,4.3,0,0,1-.83.57l0,1.29v0l-2.29.18h0l-.34-1.13h0a2.14,2.14,0,0,1-.81-.51l-1.07.66a.19.19,0,0,1-.22,0c-.12-.08-1.32-1.67-1.32-1.67s-.06-.14,0-.2l.93-.84a4,4,0,0,1-.08-1l-1.22-.65a.23.23,0,0,1-.06-.25c0-.18.88-1.89.88-1.89a.67.67,0,0,1,.27,0l.22.06.15,0,.31.1.34.11a1.49,1.49,0,0,1,.78-.51Z" transform="translate(-391.58 -391.59)"/><circle class="cls-2" cx="4.79" cy="4.8" r="1.63"/><circle class="cls-1" cx="12.08" cy="10.53" r="2.59"/><path class="cls-1" d="M402.38,398.93l1.62-.21.31,1a1.39,1.39,0,0,1,.6.34l.75-.47s.11,0,.14,0l1,1.2s.06.09,0,.15l-.68.61a1.72,1.72,0,0,1,.07.67l.9.52a.15.15,0,0,1,0,.16c0,.11-.58,1.35-.58,1.35s-.08.07-.27,0l-.77-.27a3.07,3.07,0,0,1-.29.23l-.3.18,0,.92v0l-1.63.13h0l-.24-.81h0a1.53,1.53,0,0,1-.58-.36l-.76.47a.14.14,0,0,1-.16,0c-.08-.06-.94-1.19-.94-1.19s0-.1,0-.14l.66-.6a2.85,2.85,0,0,1-.06-.7l-.87-.46a.17.17,0,0,1,0-.18c0-.13.63-1.35.63-1.35a.48.48,0,0,1,.19,0l.15,0,.11,0,.22.07.24.08a1.07,1.07,0,0,1,.56-.37Z" transform="translate(-391.58 -391.59)"/><circle class="cls-2" cx="12.08" cy="10.55" r="1.16"/></svg>