<svg id="Слой_2" data-name="Слой 2" xmlns="http://www.w3.org/2000/svg" viewBox="0 0 64.57 65.01"><defs><style>.cls-1{fill:#cd6367;}.cls-2{fill:#fff;}</style></defs><title>raketa</title><path class="cls-1" d="M381.33,409.5c4.44-7,9.39-14.37,14.92-21.87,3.94-5.35,7.87-10.39,11.75-15.12a17.18,17.18,0,0,1,4.38-2.66c3.46-1.26,9.46-2.39,19.63-1.84a78.47,78.47,0,0,1,.2,8.56,40,40,0,0,1-2.86,12.12c-1.83,4-4.24,5.89-14.83,13.49-12,8.6-18,12.89-23.75,16.83h0Z" transform="translate(-367.67 -367.86)"/><circle class="cls-2" cx="47.88" cy="16.68" r="6.46"/><path class="cls-1" d="M367.67,405.75s7.83-12.5,18.83-9.08l-6.17,11.83Z" transform="translate(-367.67 -367.86)"/><path class="cls-1" d="M394.34,432.87s12.24-8.23,8.48-19.11l-11.63,6.54Z" transform="translate(-367.67 -367.86)"/><path class="cls-1" d="M368,432s-.54-14.92,9.08-16c0,0,.83,3-2.37,9.5,0,0,5.13-3.83,9.21-3.42C383.92,422.08,381.75,432.75,368,432Z" transform="translate(-367.67 -367.86)"/></svg>