<svg id="Слой_2" data-name="Слой 2" xmlns="http://www.w3.org/2000/svg" viewBox="0 0 78.61 78.61"><defs><style>.cls-1{fill:#cd6367;}.cls-2{fill:#fff;}.cls-3{fill:#f9f9f9;}</style></defs><title>anal</title><rect class="cls-1" x="371.39" y="370.39" width="58.22" height="58.22" rx="4.47" ry="4.47" transform="translate(49.09 -526.29) rotate(46.06)"/><path class="cls-2" d="M385.13,386H399v-1.08h3V386h14s.3,22.08,0,22-10.92,0-10.92,0l5,7.92h-4.75L400.64,408,396.08,416h-5.25l5.17-8H385.13Z" transform="translate(-361.19 -360.19)"/><rect class="cls-1" x="26.74" y="29.87" width="25.13" height="14.88"/><polygon class="cls-3" points="30.06 39.31 34.62 34.62 37.81 37.74 43.74 31.74 48.43 35.53 45.93 38.12 44.06 36.31 37.81 42.68 34.56 39.31 32.62 41.74 30.06 39.31"/></svg>