<svg id="Слой_2" data-name="Слой 2" xmlns="http://www.w3.org/2000/svg" viewBox="0 0 78.61 78.61"><defs><style>.cls-1{fill:#cd6367;}.cls-2{fill:#fff;}</style></defs><title>cirkul</title><rect class="cls-1" x="424.31" y="364.2" width="58.22" height="58.22" rx="4.47" ry="4.47" transform="translate(7.92 -560.11) rotate(46.06)"/><path class="cls-2" d="M451.5,377.23h3.75V380l.21,5.92,4.54,7.5h3.5v2.83h-2.42l3.33,5.08-1.5,4.17L458,396.36l-3.39.11,0,1.77-2.56,0-.08-1.75-3.83-.08-3.83,9.08-1.83-3.75,2.71-5.31h-1.88l-.11-3,3,0h.8l4.44-7.44Z" transform="translate(-414.11 -354.01)"/><circle class="cls-2" cx="39.31" cy="30.8" r="4.69"/><circle class="cls-1" cx="39.29" cy="30.3" r="1.41"/><path class="cls-1" d="M452.42,388.6h2.17l2.52,4.71h-7.42Z" transform="translate(-414.11 -354.01)"/></svg>