<svg id="Слой_1" data-name="Слой 1" xmlns="http://www.w3.org/2000/svg" viewBox="0 0 25.5 28.96"><defs><style>.cls-1{fill:#a3a3a3;}</style></defs><title>Безымянный-1</title><path class="cls-1" d="M418,233.42c-1.21-2.75-2.17-1.48-2.17-1.48-.44.56.77,2.48.77,2.48-3.42,2.67-3.42,5.42-3.42,5.42h8V233.4Zm0,4.74a1,1,0,0,1,0-2A1,1,0,0,1,417.94,238.16Z" transform="translate(-408.5 -231.64)"/><path class="cls-1" d="M413.17,241.38h8v13.56h-1.58v4.38s-1.54,2.9-3.27,0V255l-1.83,0s-1.4-.21-1.35-1.33S413.17,241.38,413.17,241.38Z" transform="translate(-408.5 -231.64)"/><path class="cls-1" d="M408.5,242.25a1.91,1.91,0,0,1,3.13,0v8.46s-1.58,2.46-3.12,0Z" transform="translate(-408.5 -231.64)"/><path class="cls-1" d="M425.82,234.42s1.21-1.92.77-2.48c0,0-1-1.27-2.17,1.48l-3.22,0v6.44h8S429.23,237.08,425.82,234.42Zm-1.48,3.69a1,1,0,0,1,0-2A1,1,0,0,1,424.33,238.1Z" transform="translate(-408.5 -231.64)"/><path class="cls-1" d="M429.23,241.38h-8v13.56h1.58v4.38s1.54,2.9,3.27,0V255l1.83,0s1.4-.21,1.35-1.33S429.23,241.38,429.23,241.38Z" transform="translate(-408.5 -231.64)"/><path class="cls-1" d="M430.88,242.25a1.91,1.91,0,0,1,3.13,0v8.46s-1.58,2.46-3.12,0Z" transform="translate(-408.5 -231.64)"/><path class="cls-1" d="M419.16,244.69a9.89,9.89,0,0,1,2.8.57l-.38-1.4A6,6,0,0,1,419.8,245c-1.19.58-.92,2.13.51,1.91l2.28-.36-.51-1.91c-1.2.5-3.28,1-3.87,2.33a.78.78,0,0,0,.06.8c.89,1,2.51.44,3.65.32l-1.08-1.48c-.53.57-1.19,1-1.69,1.59-.74.91.25,1.47,1.08,1.48l1.77,0-1.08-1.48a15.64,15.64,0,0,1-1.37,1.09c-.68.59-.65,1.67.46,1.71q1.11,0,2.21,0l-.14-2a32.51,32.51,0,0,0-3.6,1.15c-.93.44-1.16,1.84.14,1.9a1.7,1.7,0,0,1,.85.13l.48-1.69a6.28,6.28,0,0,1-.91.42c-1,.36-1.88,1.86-.24,2a13.39,13.39,0,0,0,1.73.07c1.65,0,2.23-2.16.26-2.12a4.84,4.84,0,0,1-1-.05l-.24,2a13.69,13.69,0,0,0,1.66-.7c.49-.25,1.36-1.24.48-1.69a4.67,4.67,0,0,0-2.08-.56l.14,1.9a26.07,26.07,0,0,1,2.85-.87c1.41-.48,1.61-2.05-.14-2q-.73,0-1.47,0l.46,1.71a21.18,21.18,0,0,0,1.87-1.55c.8-.88-.3-1.47-1.08-1.48l-1.77,0,1.08,1.48c.49-.6,1.16-1,1.69-1.59.76-.82-.25-1.57-1.08-1.48a11.44,11.44,0,0,1-2,.23l.82.41-.11-.12.06.8a17.91,17.91,0,0,1,2.39-1,1,1,0,1,0-.51-1.91l-2.28.36.51,1.91a10,10,0,0,0,2.93-2,.84.84,0,0,0-.38-1.4,12.4,12.4,0,0,0-3.47-.73c-.64,0-1.64.19-1.89.89a.9.9,0,0,0,.88,1.22Z" transform="translate(-408.5 -231.64)"/><path class="cls-1" d="M421.94,254.29c-.18-2.92.42-5.87,0-8.81-.07-.55-1.53-.21-1.45.39.38,3-.23,5.88,0,8.81,0,.53,1.49.22,1.45-.39Z" transform="translate(-408.5 -231.64)"/><path class="cls-1" d="M420.42,242a16.85,16.85,0,0,1,.15,3.59,27.87,27.87,0,0,0-.18,3.87c0,.21,1.46,0,1.45-.39a27.87,27.87,0,0,1,.18-3.87,16.85,16.85,0,0,0-.15-3.59c0-.24-1.49,0-1.45.39Z" transform="translate(-408.5 -231.64)"/><path class="cls-1" d="M419.71,250.54a3.82,3.82,0,0,0,2.59-.77l-1.28.05c-.42.66-1,1.84-.67,2.65a1.09,1.09,0,0,0,.59.53c.33.17.42.07.25.38s-.66.33-.81.4-.38.23-.25.4c.5.69,1.46.45,2.12.15.24-.11.37-.28.16-.45s-.82.07-1,.17q.37-.17.1-.38l-.25.4c.44-.22,2.2-.81,1.37-1.45-.49-.38-.91-.33-.85-1.12a4.22,4.22,0,0,1,.7-1.9c.22-.35-1.14-.05-1.28.05l-.54.22a1.44,1.44,0,0,0-1,.27c-.15.18-.25.38.11.39Z" transform="translate(-408.5 -231.64)"/><path class="cls-1" d="M422,239.11c0-.81-.1-1.61-.11-2.43a29.06,29.06,0,0,1,.15-3l-1.45.29c0,.91,0,1.82,0,2.72a12.31,12.31,0,0,1,.1,2.79c-.1.49,1.35.26,1.44-.2a10,10,0,0,0-.09-2.65c0-1,0-2,0-3.05,0-.4-1.41-.12-1.45.29-.07.84-.14,1.68-.16,2.52s.16,1.94.12,2.91c0,.54,1.43.24,1.44-.2Z" transform="translate(-408.5 -231.64)"/><rect class="cls-1" x="4.67" y="9.73" width="16.06" height="12.06"/><rect class="cls-1" x="10.33" y="7.01" width="4.28" height="1.16"/></svg>