<svg id="Слой_1" data-name="Слой 1" xmlns="http://www.w3.org/2000/svg" viewBox="0 0 13.98 16"><defs><style>.cls-1{fill:#a3a3a3;}</style></defs><title>ос-mac-96</title><path class="cls-1" d="M406.33,397.25s-4.83,2.42,0,6c0,0-1.55,4.53-3.83,4.28-.4-.07-.83-.17-1.28-.28s-1-.28-1.44-.44a7.06,7.06,0,0,1-1.61.52,4.9,4.9,0,0,1-.66.09,10.6,10.6,0,0,1-1.22,0h0a7.69,7.69,0,0,1-1.66-1.29,7.9,7.9,0,0,1-2.08-7.12,4.9,4.9,0,0,1,1.59-2.77,4.57,4.57,0,0,1,2.45-.9,5.44,5.44,0,0,1,1.72.19,7.05,7.05,0,0,1,1.7.65,7.64,7.64,0,0,1,3.25-.94,3.6,3.6,0,0,1,.57.1A4.38,4.38,0,0,1,406.33,397.25Z" transform="translate(-392.36 -391.54)"/><path class="cls-1" d="M402.83,391.54s-3.47.74-3.23,3.64C399.6,395.18,403,394.5,402.83,391.54Z" transform="translate(-392.36 -391.54)"/></svg>