<svg xmlns="http://www.w3.org/2000/svg" viewBox="0 0 78.62 78.62"><defs><style>.cls-1{fill:#cd6367;}.cls-2{fill:#f9f7f7;}</style></defs><title>поддержка</title><g id="Слой_2" data-name="Слой 2"><rect class="cls-1" x="366.2" y="309.46" width="58.22" height="58.22" rx="4.47" ry="4.47" transform="translate(-480.28 69.83) rotate(-43.94)"/></g><g id="Слой_1" data-name="Слой 1"><path class="cls-2" d="M382.75,330l3.63,3.25s1.19.89,2,.06l1.73-1.6a1.4,1.4,0,0,0,0-1.22c-.32-.65-.68-1.17-4-4.38,0,0,5.67-2.36,7.84,3.69a17.71,17.71,0,0,1,.13,3.77l13.21,13.23s.71,3.79-2.79,3.83a4.67,4.67,0,0,1-1.91-.68L389.5,337.28S381.08,338.63,382.75,330Z" transform="translate(-356 -299.26)"/><polygon class="cls-2" points="35.43 42.52 36.81 43.9 33.56 47.21 33.25 49.09 28.43 52.18 27.28 50.96 30.4 46.21 32.04 45.96 35.43 42.52"/><path class="cls-2" d="M398,334.79l3.46,3.35,6.46-6.56s1-2.67-.37-3.37a4.38,4.38,0,0,0-3.17,0Z" transform="translate(-356 -299.26)"/></g></svg>