<svg xmlns="http://www.w3.org/2000/svg" viewBox="0 0 78.62 78.62"><defs><style>.cls-1{fill:#cd6367;}.cls-2{fill:#fffdfd;}</style></defs><title>помощник-96</title><g id="Слой_1" data-name="Слой 1"><rect class="cls-1" x="374.3" y="373.39" width="58.22" height="58.22" rx="4.47" ry="4.47" transform="translate(-530.47 29.41) rotate(-43.94)"/></g><g id="Слой_2" data-name="Слой 2"><path class="cls-2" d="M407.92,413.6v3.13s-10.5,2.75-14.62-8.87c0,0-5.37-2.75-1.25-5.62,0,0-1.81-12,7.16-13.75s13,1.88,13,1.88a12.82,12.82,0,0,1,3.25,8.75s2.5.25,2.75,2.13.38,6.5-1.25,6.5c0,0-1.25,4.38-2.25,4.75s-5,.13-5,.13l-6.26,0s-3.36-2.12,1-4.25c0,0,2,.38,1.73,1.38H413l.25-1.62-1.12.13-.12-8.87s.63-1.37-2.5-1.12a41.54,41.54,0,0,1-6.62-.12,4,4,0,0,1-2.87-2s.25,1.88-5.25,3a16.31,16.31,0,0,0,.25,4.63l-2,.88s.25,1.25,2.5.75C395.5,405.38,398,417.19,407.92,413.6Z" transform="translate(-364.1 -363.19)"/><circle class="cls-2" cx="35.59" cy="40.12" r="2.31"/><circle class="cls-2" cx="43.59" cy="40.12" r="2.31"/></g></svg>