<svg id="Слой_2" data-name="Слой 2" xmlns="http://www.w3.org/2000/svg" viewBox="0 0 78.62 78.62"><defs><style>.cls-1{fill:#cd6367;}.cls-2{fill:#fff;}</style></defs><title>идея-96</title><rect class="cls-1" x="381.02" y="362.97" width="58.22" height="58.22" rx="4.47" ry="4.47" transform="translate(-528.07 41.58) rotate(-43.94)"/><path class="cls-2" d="M405.61,400.18h9.1s.16-2.23,3-4.44a9,9,0,0,0,3.08-5.81s1.15-11.66-10.47-11.9Z" transform="translate(-370.82 -352.77)"/><path class="cls-2" d="M414,400l-4,.14h-4.43s-.16-2.23-3-4.44a9,9,0,0,1-3.08-5.81c-.06-.38-.78-5.9,3.38-9.49a10.48,10.48,0,0,1,7.34-2.41Z" transform="translate(-370.82 -352.77)"/><path class="cls-2" d="M405.75,402.05v2.56a6.77,6.77,0,0,0,2.11,1.48s1.24,2,2.42,2v-6.08Z" transform="translate(-370.82 -352.77)"/><path class="cls-2" d="M414.81,402.05v2.56a6.77,6.77,0,0,1-2.11,1.48s-1.24,2-2.42,2v-6.08Z" transform="translate(-370.82 -352.77)"/></svg>