<svg id="Слой_2" data-name="Слой 2" xmlns="http://www.w3.org/2000/svg" viewBox="0 0 78.62 78.62"><defs><style>.cls-1{fill:#cd6367;}.cls-2{fill:#f9f7f7;}</style></defs><title>группы-пользователей-96</title><rect class="cls-1" x="433.2" y="365.46" width="58.22" height="58.22" rx="4.47" ry="4.47" transform="translate(-567.38 76) rotate(-43.94)"/><path class="cls-2" d="M462.31,403.63h5.85s-.45-4.3-5.85-4.3Z" transform="translate(-423 -355.26)"/><path class="cls-2" d="M462.31,403.63h-5.85s.45-4.3,5.85-4.3Z" transform="translate(-423 -355.26)"/><circle class="cls-2" cx="39.31" cy="39.31" r="2.93"/><path class="cls-2" d="M451.15,400H457s-.45-4.3-5.85-4.3Z" transform="translate(-423 -355.26)"/><path class="cls-2" d="M451.15,400H445.3s.45-4.3,5.85-4.3Z" transform="translate(-423 -355.26)"/><circle class="cls-2" cx="28.14" cy="35.7" r="2.93"/><path class="cls-2" d="M473.48,399.62h5.85s-.45-4.3-5.85-4.3Z" transform="translate(-423 -355.26)"/><path class="cls-2" d="M473.48,399.62h-5.85s.45-4.3,5.85-4.3Z" transform="translate(-423 -355.26)"/><circle class="cls-2" cx="50.82" cy="35.7" r="2.93"/><circle class="cls-2" cx="33.46" cy="29.84" r="2.93"/><circle class="cls-2" cx="43.24" cy="29.84" r="2.93"/></svg>