<svg id="Слой_2" data-name="Слой 2" xmlns="http://www.w3.org/2000/svg" viewBox="0 0 648.89 546.13"><defs><style>.cls-1{fill:#f1f1f1;}.cls-2{fill:#cfd8dd;}.cls-3{fill:#ced8dc;}.cls-4{fill:#5a5c5d;}.cls-5{fill:#c96969;}.cls-6{fill:#e07070;}.cls-7{fill:#fff800;}.cls-8{fill:#b6b8c1;}.cls-9{fill:#83889b;}.cls-10{fill:#b9c2ba;}.cls-11{fill:#dcdee0;}.cls-12{fill:#273436;}.cls-13{fill:#6890cb;}.cls-14{fill:#9ea4a0;}.cls-15{fill:#4a72b1;}.cls-16{fill:#bcc1bd;}.cls-17{fill:#b5b5b5;}.cls-18{fill:#dae0dc;}.cls-19{fill:#cdcfd2;}.cls-20{fill:#83889c;}.cls-21{fill:#1a1a24;}.cls-22{fill:#4d6d9d;}.cls-23{fill:#538dc0;}.cls-24{fill:#a5a5a5;}.cls-25{fill:#f9f9f9;}.cls-26{fill:#e9dcc1;}.cls-27{fill:#fff;}.cls-28{fill:#a6a6a6;}.cls-29{fill:#fcfcfc;}</style></defs><title>raketa</title><path class="cls-1" d="M593,780v235l19.5,13.25L614,828.67S603,781.67,593,780Z" transform="translate(-214 -733)"/><path class="cls-2" d="M593,780v235l-19.5,13.25L572,828.67S583,781.67,593,780Z" transform="translate(-214 -733)"/><path class="cls-3" d="M594.13,780v235l-19.5,13.25-1.5-199.58S584.13,781.67,594.13,780Z" transform="translate(-214 -733)"/><path class="cls-1" d="M594.13,780v235l19.5,13.25,1.5-199.58S604.13,781.67,594.13,780Z" transform="translate(-214 -733)"/><rect class="cls-4" x="380.13" y="104.33" width="20.92" height="6.33"/><rect x="359.22" y="104.33" width="20.91" height="6.33"/><rect class="cls-4" x="380.13" y="171.08" width="19.87" height="6.33"/><rect class="cls-4" x="380.13" y="225.08" width="19.87" height="6.33"/><rect x="359.72" y="171.08" width="20.41" height="6.33"/><rect x="359.04" y="225.08" width="21.35" height="6.33"/><path class="cls-5" d="M458.89,1091.63s-3.87,12.63,5.5,15h36.25v-13.37l-42-7.87Z" transform="translate(-214 -733)"/><path class="cls-6" d="M612.38,1091.63s3.88,12.63-5.5,15H570.63v-13.37l42-7.87Z" transform="translate(-214 -733)"/><path class="cls-3" d="M479.85,780v235l-19.5,13.25-1.5-199.58S469.85,781.67,479.85,780Z" transform="translate(-214 -733)"/><path class="cls-1" d="M479.85,780v235l19.5,13.25,1.5-199.58S489.85,781.67,479.85,780Z" transform="translate(-214 -733)"/><path class="cls-6" d="M536.05,733l-1.39,245.5h38.45l1.39-187.22S570.34,741.37,536.05,733Z" transform="translate(-214 -733)"/><path class="cls-5" d="M536,733l1.39,244.33H498.81L497.42,791S501.59,741.33,536,733Z" transform="translate(-214 -733)"/><rect class="cls-7" x="284.06" y="171.08" width="75.58" height="6.33"/><path class="cls-8" d="M536.33,800.83V1110.5l104.17-25s5.75-38.75-27-57.25c0,0-34.42-34.5-40.71-68.25s-9.54-58.25-9.54-58.25S562,842,550.75,822.25C550.75,822.25,546.17,800.17,536.33,800.83Z" transform="translate(-214 -733)"/><path class="cls-9" d="M536.33,800.83V1110.5l-104.17-25s-5.75-38.75,27-57.25c0,0,34.42-34.5,40.71-68.25s9.54-58.25,9.54-58.25,1.25-59.75,12.5-79.5C521.92,822.25,526.5,800.17,536.33,800.83Z" transform="translate(-214 -733)"/><rect class="cls-7" x="283.79" y="104.33" width="76.71" height="6.33"/><path class="cls-10" d="M510.33,883.17h26V822.42l-14.42-.17a66.31,66.31,0,0,0-2.89,6.48,70.36,70.36,0,0,0-3.47,12.63c-2.26,11.7-3.38,21.3-3.5,22.29C511.49,868.62,510.82,875.26,510.33,883.17Z" transform="translate(-214 -733)"/><path class="cls-11" d="M562.33,883.17h-26V822.42l14.42-.17a66.31,66.31,0,0,1,2.89,6.48,70.36,70.36,0,0,1,3.47,12.63c2.26,11.7,3.38,21.3,3.5,22.29C561.18,868.62,561.84,875.26,562.33,883.17Z" transform="translate(-214 -733)"/><path d="M536.33,800.83v21.58l-14.42-.17S526.67,799.85,536.33,800.83Z" transform="translate(-214 -733)"/><path class="cls-12" d="M550.75,822.25s-4.75-22.4-14.42-21.42v21.58" transform="translate(-214 -733)"/><path class="cls-13" d="M536.33,839.67v24h18.42S558.33,840,536.33,839.67Z" transform="translate(-214 -733)"/><rect class="cls-14" x="296.31" y="150.17" width="52.02" height="215.08"/><path class="cls-15" d="M517.92,863.67s-3.58-23.67,18.42-24v24" transform="translate(-214 -733)"/><rect class="cls-16" x="296.33" y="153.75" width="24.33" height="41"/><rect class="cls-16" x="296.33" y="197" width="24.33" height="41"/><rect class="cls-16" x="296.33" y="326.75" width="24.33" height="41"/><rect class="cls-16" x="296.33" y="240.25" width="24.33" height="41"/><rect class="cls-16" x="296.33" y="283.5" width="24.33" height="41"/><path class="cls-17" d="M535.67,1073v50.5H500l.85-38.75S501.33,1071,535.67,1073Z" transform="translate(-214 -733)"/><rect class="cls-18" x="324" y="153.75" width="24.33" height="41"/><rect class="cls-18" x="324" y="197" width="24.33" height="41"/><rect class="cls-18" x="324" y="240.25" width="24.33" height="41"/><rect class="cls-18" x="324" y="283.5" width="24.33" height="41"/><rect class="cls-18" x="324" y="326.75" width="24.33" height="41"/><path class="cls-19" d="M535.67,1073v50.5h35.67l-.85-38.75S570,1071,535.67,1073Z" transform="translate(-214 -733)"/><circle class="cls-20" cx="380" cy="311" r="9.5"/><rect class="cls-21" x="368.5" y="324.5" width="21" height="5.75"/><rect class="cls-21" x="368.08" y="332" width="27.67" height="4.92"/><rect class="cls-21" x="249.75" y="331.75" width="26.6" height="5"/><rect class="cls-21" x="255.14" y="324.5" width="21" height="5.75"/><path class="cls-5" d="M506.5,1123.5h24.88s6.5,3.88,0,9.5H506.5S499.5,1128.13,506.5,1123.5Z" transform="translate(-214 -733)"/><path class="cls-6" d="M539.44,1123.5h24.88s6.5,3.88,0,9.5H539.44S532.44,1128.13,539.44,1123.5Z" transform="translate(-214 -733)"/><rect class="cls-22" x="293.83" y="400" width="23.25" height="4.75"/><rect class="cls-23" x="326.15" y="400" width="23.25" height="4.75"/><rect class="cls-23" x="356.88" y="373.63" width="36.25" height="4.75"/><rect class="cls-22" x="250.33" y="373.63" width="35.97" height="4.75"/><rect class="cls-4" x="265.85" y="104.33" width="17.93" height="6.33"/><rect x="244.94" y="104.33" width="20.91" height="6.33"/><rect class="cls-4" x="265.85" y="171.08" width="18.43" height="6.33"/><rect class="cls-4" x="265.85" y="225.08" width="18.82" height="6.33"/><rect x="245.44" y="171.08" width="20.41" height="6.33"/><rect x="245.85" y="225.08" width="20.25" height="6.33"/><path class="cls-24" d="M474.47,1111.38h19.63q0,37.5-.06,75s9.92-.25,13.33,3c0,0,3.17-6.75,6.17-7.5v-44h12v38.25a45.64,45.64,0,0,1,21.5-.25q0-19.06,0-38.12h11.79q0,21.69,0,43.38s5.5,4.25,6.75,8.25c0,0,6.25-4.5,12.25-3q0-37.5,0-75h19.83q0,30.38,0,60.75s10.25-6.25,16.25,2.25h13.75s4-11.5,12.89-5.25a7.76,7.76,0,0,1,0,10.5s16.11,14.17,13.44,29.17c0,0,6.67-2,9.33,0,0,0-1-23.33,19.67-17.33,0,0,14.33,7.67,4,21.67,0,0,6.33,3,7,6,0,0,31.67-29,65,9,0,0,24-7,18.33,15,0,0-1.67,8-11.33,7l-.33,5.67s25-2.67,26.33,15.33h-513s6.67-19.67,26.67-15.67l1.33-6s-14,2.83-12.33-16.33c0,0,3.5-11.83,18.5-4.5,0,0,22.5-37.33,65.83-10.17a39.18,39.18,0,0,1,39.17-9.17s-1.8-39.67,39.6-34.17c0,0,4.4-10,16.9-2.75Z" transform="translate(-214 -733)"/><ellipse class="cls-25" cx="245.67" cy="465.14" rx="11.15" ry="11.42"/><path class="cls-26" d="M400,971s63,135-186,293C214,1264,499,1117,400,971Z" transform="translate(-214 -733)"/><path class="cls-26" d="M676.89,971s-63,135,186,293C862.89,1264,577.89,1117,676.89,971Z" transform="translate(-214 -733)"/><rect class="cls-27" x="141.5" y="493.67" width="19" height="13.83" rx="2.21" ry="2.21"/><polygon class="cls-24" points="143.58 495.33 158.37 495.33 151.38 500.58 143.58 495.33"/><polygon class="cls-24" points="143.58 497.17 151.29 502.83 158.37 497.17 158.37 505.33 143.58 505.33 143.58 497.17"/><path class="cls-25" d="M408.09,1242.42l2.65,4.19a6.3,6.3,0,0,1-1.32,2.35,3.81,3.81,0,0,0,.2.9c.28.78.75,1.26,2.05,2.38,1.89,1.62,2.16,1.68,2.42,1.68a2.62,2.62,0,0,0,1.87-1.21s.59-.59,4.93,2.8a3.22,3.22,0,0,1-2.65,3.16,5.91,5.91,0,0,1-4.49-1.1s-6.77-4.71-8.83-10.08S408.09,1242.42,408.09,1242.42Z" transform="translate(-214 -733)"/><path class="cls-24" d="M456.59,1188.34a9.47,9.47,0,0,0-5.16,3.89h3.25A6.69,6.69,0,0,1,456.59,1188.34Z" transform="translate(-214 -733)"/><path class="cls-24" d="M464.66,1192.23a6.69,6.69,0,0,0-1.91-3.89,9.47,9.47,0,0,1,5.16,3.89" transform="translate(-214 -733)"/><path class="cls-24" d="M459.13,1187.81v4.42h-3.28S456.78,1188.74,459.13,1187.81Z" transform="translate(-214 -733)"/><path class="cls-24" d="M463.44,1192.23s-.94-3.49-3.28-4.42v4.42" transform="translate(-214 -733)"/><path class="cls-24" d="M464,1203h-3.84v-4.4l4.41,0A13.55,13.55,0,0,1,464,1203Z" transform="translate(-214 -733)"/><path class="cls-24" d="M455.28,1203h3.84v-4.4l-4.41,0a13.55,13.55,0,0,0,.56,4.42Z" transform="translate(-214 -733)"/><path class="cls-24" d="M464,1193.28h-3.84v4.4l4.41,0a13.55,13.55,0,0,0-.56-4.42Z" transform="translate(-214 -733)"/><path class="cls-24" d="M455.28,1193.28h3.84v4.4l-4.41,0a13.55,13.55,0,0,1,.56-4.42Z" transform="translate(-214 -733)"/><path class="cls-24" d="M450.65,1193.28h3.6c-.12.46-.22,1-.3,1.5a17.26,17.26,0,0,0-.21,2.92h-4.37S449.56,1194.71,450.65,1193.28Z" transform="translate(-214 -733)"/><path class="cls-24" d="M468.67,1193.28h-3.6a15,15,0,0,1,.45,4.42h4.42S469.76,1194.71,468.67,1193.28Z" transform="translate(-214 -733)"/><path class="cls-24" d="M450.65,1203h3.6c-.12-.46-.22-1-.3-1.5a17.26,17.26,0,0,1-.21-2.92h-4.37S449.56,1201.61,450.65,1203Z" transform="translate(-214 -733)"/><path class="cls-24" d="M468.67,1203h-3.6c.12-.46.22-1,.3-1.5a17.26,17.26,0,0,0,.21-2.92h4.37S469.76,1201.61,468.67,1203Z" transform="translate(-214 -733)"/><path class="cls-24" d="M463.44,1204s-.94,3.49-3.28,4.42V1204" transform="translate(-214 -733)"/><path class="cls-24" d="M455.84,1204s.94,3.49,3.28,4.42V1204" transform="translate(-214 -733)"/><path class="cls-24" d="M464.66,1204a6.69,6.69,0,0,1-1.91,3.89,9.47,9.47,0,0,0,5.16-3.89" transform="translate(-214 -733)"/><path class="cls-24" d="M454.69,1204a6.69,6.69,0,0,0,1.91,3.89,9.47,9.47,0,0,1-5.16-3.89" transform="translate(-214 -733)"/><rect class="cls-25" x="255.63" y="516.13" width="16" height="3.33"/><circle class="cls-28" cx="257.19" cy="517.73" r="0.81"/><rect class="cls-25" x="255.63" y="520.29" width="16" height="3.33"/><rect class="cls-25" x="255.63" y="524.46" width="16" height="3.33"/><circle class="cls-28" cx="257.19" cy="521.96" r="0.81"/><circle class="cls-28" cx="257.19" cy="526.19" r="0.81"/><polygon class="cls-29" points="347 519.38 368 508.38 362.75 529.38 356.88 524 352.88 528.19 352.19 521.75 347 519.38"/><path class="cls-24" d="M563.19,1252.19l17.44-9.37-4.37,17.69-4.75-3.87,7.19-11.37s.06-.4-.37-.25-11.12,9-11.12,9Z" transform="translate(-214 -733)"/><polygon class="cls-24" points="353.75 521.79 362.75 513.96 356.5 523 353.54 526.29 353.75 521.79"/><path class="cls-27" d="M625.88,1251.88s-2.62-16.12,7.5-16.75c0,0,7.75.63,6.75,7.69S625.88,1251.88,625.88,1251.88Z" transform="translate(-214 -733)"/><circle class="cls-24" cx="419" cy="509.19" r="2.31"/><path class="cls-27" d="M668.67,1220.92a11.86,11.86,0,0,1,16,0l-.92,1.33a11.28,11.28,0,0,0-8.19-2.56,10.92,10.92,0,0,0-5.9,2.56Z" transform="translate(-214 -733)"/><path class="cls-27" d="M670.67,1223.17a9.26,9.26,0,0,1,6.54-2.13,9.12,9.12,0,0,1,5.33,2.32l-1,1.42a7,7,0,0,0-9.67-.06Z" transform="translate(-214 -733)"/><path class="cls-27" d="M672.66,1225.81a6.55,6.55,0,0,1,8.19.13l-1,1.13a5.5,5.5,0,0,0-3.59-1,5.4,5.4,0,0,0-2.73,1Z" transform="translate(-214 -733)"/><path class="cls-27" d="M674.9,1228.23l1.7,1.85,1.67-1.85A2.77,2.77,0,0,0,674.9,1228.23Z" transform="translate(-214 -733)"/><path class="cls-27" d="M613.92,1197.66s.21-2.08,1.33-2.23h5.85s.65-.27,1.15,2.4c0,0,4-.48,3.77,1.27v9.4s.14.79-1,1.29H611.17a1.44,1.44,0,0,1-1.15-1.21c-.08-1,0-9.31,0-9.31s-.35-1.54,1.21-1.48l2.65,0Z" transform="translate(-214 -733)"/><circle class="cls-24" cx="404.01" cy="471.06" r="3.31"/><circle class="cls-27" cx="404.01" cy="471.06" r="1.62"/></svg>